<?xml version="1.0" encoding="utf-8"?>
<!-- Generator: Adobe Illustrator 24.3.0, SVG Export Plug-In . SVG Version: 6.00 Build 0)  -->
<svg version="1.1" id="Layer_1" xmlns="http://www.w3.org/2000/svg" xmlns:xlink="http://www.w3.org/1999/xlink" x="0px" y="0px"
	 viewBox="0 0 32 32" style="enable-background:new 0 0 32 32;" xml:space="preserve">
<style type="text/css">
	.st0{fill:#2626DD;}
	.st1{fill:#2020D3;}
	.st2{fill:#7878F9;}
	.st3{fill:#4B4BF9;}
	.st4{fill:#2B26F9;}
	.st5{fill:#2525CE;}
	.st6{fill:#0404AF;}
	.st7{fill:#605706;}
	.st8{fill:#0606B5;}
	.st9{fill:#0000FF;}
	.st10{fill:#9E930A;}
	.st11{fill:#A39213;}
	.st12{fill:#EAD939;}
	.st13{fill:#B7AE08;}
	.st14{fill:#D1C20D;}
	.st15{fill:#89800B;}
	.st16{fill:#A0920B;}
	.st17{fill:#BCAA08;}
	.st18{fill:#F4E806;}
	.st19{fill:#E8DC43;}
	.st20{fill:#D6C30F;}
	.st21{fill:#B7A430;}
	.st22{opacity:0.28;fill:#FFFF00;enable-background:new    ;}
	.st23{fill:#847508;}
	.st24{fill:#7C762F;}
	.st25{fill:#605B2B;}
	.st26{fill:#756D0E;}
	.st27{fill:#CEBF0D;}
	.st28{fill:#96860C;}
	.st29{fill:#AA9B29;}
	.st30{fill:#565122;}
	.st31{fill:#AFA30B;}
	.st32{fill:#A39C17;}
	.st33{fill:#AF980E;}
	.st34{fill:#9B8710;}
	.st35{fill:#968011;}
	.st36{opacity:0.52;fill:#725F0D;enable-background:new    ;}
	.st37{opacity:0.54;fill:#ADA805;enable-background:new    ;}
	.st38{fill:#D6D6D6;}
	.st39{fill:url(#SVGID_1_);}
	.st40{fill:url(#SVGID_2_);}
</style>
<g id="FRONT_WHEEL">
	<polygon id="TREAD" class="st0" points="18.9,30.5 17.2,30.7 16,30.7 15.9,30.7 15.7,30.6 15.6,30.4 15.4,30.1 15.3,29.9 
		15.2,29.6 15.1,29.4 14.9,28.8 14.8,28.3 14.7,27.9 14.5,27.3 14.4,26.6 14.3,26.3 14.3,25.6 14.2,25.1 14.1,24.6 14.1,24.1 
		14.1,23.3 14.1,22.5 14.1,21.8 14.1,21.2 14.1,20.4 14.2,19.4 14.4,18 14.5,17 14.7,16.1 15,15.3 15.3,14.9 15.5,14.7 15.7,14.6 
		16.1,14.8 16.5,15.3 16.9,16.3 17.2,17.2 17.4,18.4 17.7,20.2 18,22.2 18.2,24 18.6,26.9 18.7,28.6 	"/>
	<path id="SIDEWALL" class="st1" d="M17.5,22.3c0.2,4.4-0.4,8.1-1.4,8.3c-0.7,0.2-1.5-1.9-1.8-4.9c-0.1-0.8-0.2-1.7-0.2-2.5
		c-0.2-4.4,0.4-8.1,1.4-8.3C16.4,14.6,17.3,18,17.5,22.3z"/>
	<ellipse id="lip" class="st2" cx="15.7" cy="22.2" rx="1.5" ry="6.8"/>
	<ellipse id="barrel" class="st3" cx="15.6" cy="22" rx="1.3" ry="6.2"/>
	<ellipse id="disc" class="st4" cx="16.3" cy="22" rx="0.6" ry="4.9"/>
	<ellipse id="CENTRE_CAP_REAR" class="st5" cx="16.4" cy="22.1" rx="0.4" ry="1.5"/>
	<ellipse id="CENTRE_CAPT" class="st6" cx="16.3" cy="22.1" rx="0.2" ry="0.9"/>
</g>
<g id="Diffuser">
	<polygon class="st7" points="2.6,24.4 1.2,23.8 1.1,19.4 2.6,19.6 	"/>
</g>
<g id="REAR_WHEEL">
	<path id="SIDEWALL-2" class="st8" d="M4.7,19.5c0,2,0.9,5.3,0.8,6.7c-0.1,0.5-1,0.4-1.2,0.4c-0.2,0-0.9-0.1-1.1-0.1
		c-0.8,0-1.5-3.1-1.5-7s0.7-7,1.5-7S4.7,15.6,4.7,19.5z"/>
	<ellipse id="OUTER_LIP" class="st2" cx="2.9" cy="19.2" rx="1.1" ry="5.8"/>
	<ellipse id="STEP_LIP" class="st3" cx="3.1" cy="19.3" rx="0.9" ry="5.3"/>
	<ellipse id="INNER_BARREL" class="st4" cx="3.2" cy="19.2" rx="0.6" ry="4.9"/>
	<path id="CENTRE_CAP" class="st9" d="M3.9,18.2c-0.2,0.8-0.1,0.4-0.2,1c-0.1,0.6,0.2,1.8,0.2,1.4"/>
</g>
<g id="Spoiler">
	<polygon id="right" class="st10" points="8.3,5 6.6,6 6.6,2.4 8.3,3.2 	"/>
	<polygon class="st11" points="0.9,4.2 7.3,3.9 7.3,4.4 0.9,4.7 	"/>
	<polygon class="st12" points="0.9,3.7 7.3,3.5 7.3,4 0.9,4.3 	"/>
	<polygon id="left" class="st13" points="2.2,5.5 0.5,6.5 0.5,2.9 2.1,3.7 	"/>
	<polygon id="left-2" class="st14" points="2,5.3 0.5,6.1 0.5,3.2 1.9,3.8 	"/>
	<polygon class="st15" points="3.8,6.7 3.5,7.1 2.9,4.6 3.2,4.5 	"/>
</g>
<g id="BODY">
	<polygon class="st16" points="20.5,28.3 18.8,28.1 18.6,26.2 18,22.9 17.8,20.4 17.6,19.3 17.4,18.6 17.3,18 17.2,17.6 17.1,17.3 
		17,17 16.9,16.8 16.9,16.5 16.7,16.2 16.6,15.9 16.5,15.7 16.3,15.4 16.2,15.3 16.1,15.2 15.9,15.1 15.6,15.1 15.5,15.2 15.3,15.5 
		15,16 14.7,16.8 14.5,18.2 14.3,19.4 14.2,20.6 14.2,21.9 14.2,23.7 14.2,24.8 14.3,25.5 14.4,26.4 14.5,27.3 5.2,24.8 4.7,20.7 
		4.1,16.2 4,15.2 3.8,14.8 3.8,14.6 3.7,14.2 3.6,13.9 3.5,13.7 3.4,13.4 3.3,13.3 3.2,13.2 3.1,13.1 3,13.1 2.9,13.1 2.8,13.1 
		2.7,13.2 2.6,13.3 2.5,13.4 2.5,13.6 2.4,13.7 2.3,13.9 2.2,14.2 2.2,14.7 2,15.3 2,15.6 1.9,16.7 1.8,18.7 1.7,18.9 0.5,7.4 
		19.8,13.2 	"/>
	<polygon class="st17" points="19.7,13.1 0.4,7.4 1.2,7 13.7,0.3 	"/>
	<polygon class="st18" points="28.1,9 17.8,9 13.7,0.3 20.4,0.3 	"/>
	<polygon class="st19" points="31.4,12.6 29.9,14.1 23.7,14.4 19.7,13.1 17.8,9 28.1,9 	"/>
	<polygon class="st20" points="30.5,22.1 20.2,23.3 19.8,14.9 22.4,15.4 29.9,15.4 31.3,14.4 	"/>
	<polygon class="st21" points="31.3,22.7 23.4,23.6 20.3,23.3 30.5,22.1 	"/>
	<path class="st22" d="M22.3,15.4"/>
	<polygon class="st20" points="30.9,28.3 23.5,29.4 20.4,28.3 20.2,23.3 23.5,23.6 31.3,22.7 	"/>
	<polygon class="st23" points="31.7,29.6 23.7,31.7 18.9,30.4 18.6,28 20.2,28 22.8,29.1 23.8,29.1 30.9,28 	"/>
	<polygon class="st24" points="28,9 18,9 15.1,2.9 22.6,2.9 	"/>
	<polygon class="st25" points="17.5,10.6 6.6,8 7.5,4 13.3,1.4 	"/>
	<polygon id="window" class="st26" points="17.5,10.6 8,8.3 8.4,5.5 13.5,1.9 	"/>
	<path class="st22" d="M22.8,26.9"/>
	<polygon class="st7" points="29.7,24 24.4,24.6 24,28.9 30.4,27.9 	"/>
	<polygon class="st27" points="29.9,24.8 24.3,25.7 24.4,24.6 29.7,23.7 	"/>
	<polygon class="st28" points="30.3,27.8 29.5,27 29.3,25 29.9,24.8 	"/>
	<polygon class="st29" points="29.5,27 24.1,28 24,28.8 30.3,27.8 	"/>
	<polygon class="st30" points="27.1,8.7 22.4,7.5 22.2,3 	"/>
</g>
<g id="FLARES_SKIRT">
	<polygon class="st31" points="6.9,22.5 7.7,24.5 5,24.1 4.9,23.6 4.9,23.3 4.9,23.1 4.8,22.7 4.6,21.2 4.4,19.7 4.3,18.8 4.2,17.9 
		4.1,17.2 4,16.5 3.9,15.9 3.8,15.4 3.8,15.1 3.7,14.7 3.6,14.5 3.6,14.4 3.5,14.1 3.4,13.9 3.3,13.6 3.2,13.5 3.1,13.3 3,13.3 
		3,13.2 2.9,13.2 2.8,13.2 2.8,13.2 2.7,13.2 2.6,13.3 2.6,13.3 2.5,13.5 2.4,13.7 2.3,13.9 2.2,14.4 2.2,14.4 2.2,14.6 2.1,14.8 
		2.1,15 2,15.5 2,15.8 1.9,16.1 1.9,16.4 1.9,16.9 1.8,17.3 1.8,17.7 1.8,18.2 1.8,18.9 1.7,19.1 0.7,8.5 6,9.9 	"/>
	<path class="st22" d="M4.5,19.8"/>
	<polygon class="st31" points="20.1,28 18.6,28 18.5,27 18.2,24.4 18,22.7 17.8,21.3 17.5,19.4 17.4,18.8 17.3,18.3 17.2,17.9 
		17.2,17.7 17.1,17.5 17,17.2 17,16.9 16.9,16.9 16.9,16.6 16.7,16.4 16.6,16.1 16.5,15.8 16.4,15.6 16.2,15.4 16.1,15.3 16.1,15.2 
		15.9,15.1 15.9,15.1 15.7,15.1 15.6,15.1 15.5,15.1 15.4,15.1 15.3,15.3 15.2,15.4 15.1,15.6 15,15.9 14.9,16.1 14.8,16.3 
		14.7,16.5 14.7,16.8 14.6,17.1 14.6,17.3 14.5,17.7 14.5,18.1 14.4,18.4 14.3,18.9 14.3,19.3 14.2,20 14.2,20.4 14.2,21 14.1,21.5 
		14.1,22 14.1,22.5 14.1,23 14.1,23.4 14.1,24 14.2,24.3 14.2,24.6 14.2,24.9 14.3,25.2 14.3,25.5 14.3,26 14.4,26.4 13.5,26.1 
		13.3,14 13.8,11.9 19.4,13.5 	"/>
	<polygon class="st7" points="14.8,28.8 5,26.3 5,24.1 5.5,24.3 9.9,25.4 14.4,26.6 14.8,28.5 	"/>
	<polygon class="st32" points="14.4,26.4 14.4,26.6 5.9,24.5 5,24.1 7.7,24.3 13.4,25.8 	"/>
	<path class="st22" d="M5.8,24.3"/>
	<path class="st22" d="M5.8,24.3"/>
	<path class="st22" d="M5.9,25"/>
	<polygon class="st33" points="20.1,28 18.8,27.9 18.2,23.4 18.1,22.9 18.1,22.4 18,21.7 18,21.2 17.9,20.6 17.8,20.2 17.8,19.5 
		17.6,18.9 17.6,18.5 17.5,18.1 17.4,17.7 17.3,17.3 17.2,16.9 17.2,16.6 17.1,16.4 17,16.2 16.9,16 16.9,15.9 16.8,15.6 16.7,15.5 
		16.7,15.4 16.6,15.2 16.5,15.1 16.4,14.9 16.3,14.6 16.2,14.5 16,14.4 15.9,14.3 15.7,14.2 15.5,14.2 15.3,14.3 15.1,14.5 
		14.9,14.9 14.9,14.4 14.9,12.3 19.4,13.5 	"/>
	<polyline class="st33" points="5.4,24.3 4.7,19.8 4.7,19.3 4.6,18.8 4.5,18.1 4.5,17.6 4.4,17 4.4,16.6 4.3,15.9 4.1,15.3 
		4.1,14.9 4,14.5 3.9,14.1 3.8,13.7 3.7,13.3 3.6,13.1 3.5,12.9 3.5,12.6 3.4,12.4 3.3,12.3 3.2,12.1 3.2,11.9 3.1,11.8 3,11.7 
		2.9,11.5 2.8,11.3 2.7,11.1 2.5,11 2.4,10.8 2.2,10.8 2.1,10.7 1.8,10.7 1.6,10.8 1.4,11 1.3,11.1 1.1,11.6 1.1,12 1,11.1 0.7,8.5 
		6,9.8 6.9,22.5 7.7,24.3 	"/>
	<polygon class="st34" points="19.1,14.1 18.8,14.9 18.2,16.4 18.1,16.8 18,17 17.9,17.6 17.8,17.9 17.8,18.9 17.8,19.5 17.7,19.2 
		17.6,18.7 17.5,18.2 17.5,17.9 17.4,17.7 17.4,17.4 17.3,17.3 17.2,16.9 17.2,16.7 17.1,16.4 17.1,16.4 17,16.1 16.9,15.9 
		16.9,15.8 16.8,15.7 16.7,15.4 16.7,15.3 16.6,15.2 16.5,15.1 16.5,15 16.4,14.9 16.4,14.8 16.4,14.8 16.3,14.7 16.3,14.6 
		16.2,14.6 16.1,14.5 16.1,14.4 16,14.4 15.7,14.2 19.4,13.5 	"/>
	<path class="st33" d="M6.3,23.2"/>
	<polygon class="st35" points="3.6,12.7 3.9,13.2 4.5,12.5 4.9,12.1 4.2,13.8 5.2,11.9 5.4,11.6 4.5,14.6 6,11.1 5.3,14.9 5.7,14.6 
		6.1,12.1 6,9.8 4.4,11.6 	"/>
	<polygon class="st36" points="7.7,24.3 5.7,24.1 6.4,23.9 6.4,22 6.9,22.5 	"/>
</g>
<g id="BUMPER_DETAILS">
	<polygon class="st37" points="22.8,27.6 20.8,26.6 20.8,24.9 22.8,24.9 	"/>
	<polygon class="st7" points="22.8,27.5 22.2,26.8 20.8,26.3 20.8,24.9 22.3,24.9 22.7,25 22.2,25.3 22.2,26.6 22.6,27.1 	"/>
</g>
<g id="LIGHTS">
	<polygon class="st38" points="31.3,14.4 29.9,15.4 22.4,15.4 19.8,14.9 19.7,13.1 24,14.3 30.1,13.9 31.4,12.6 	"/>
	
		<linearGradient id="SVGID_1_" gradientUnits="userSpaceOnUse" x1="25.6223" y1="20.9381" x2="25.6223" y2="18.6462" gradientTransform="matrix(1 0 0 -1 0 34)">
		<stop  offset="0.54" style="stop-color:#7878F9"/>
		<stop  offset="1" style="stop-color:#000000"/>
	</linearGradient>
	<polygon class="st39" points="31.3,14.1 29.9,15.1 22.5,15.1 20,14.7 19.9,13.6 24,14.5 30,14.3 31.3,13.1 	"/>
	<polygon class="st38" points="31,16.9 29.6,17.9 22.5,17.9 20,17.5 19.9,15.7 24,16.9 29.9,16.4 31.2,15.1 	"/>
	
		<linearGradient id="SVGID_2_" gradientUnits="userSpaceOnUse" x1="42.08" y1="17.3502" x2="42.0943" y2="17.3502" gradientTransform="matrix(1 0 0 -1 0 34)">
		<stop  offset="0.58" style="stop-color:#7878F9"/>
		<stop  offset="1" style="stop-color:#000000"/>
	</linearGradient>
	<polygon class="st40" points="31,16.7 29.6,17.7 22.2,17.7 20.1,17.2 20,16.1 23.8,17.1 29.8,16.9 31.1,15.6 	"/>
</g>
</svg>
