<?xml version="1.0" encoding="utf-8"?>
<!-- Generator: Adobe Illustrator 24.3.0, SVG Export Plug-In . SVG Version: 6.00 Build 0)  -->
<svg version="1.1" id="Layer_1" xmlns="http://www.w3.org/2000/svg" xmlns:xlink="http://www.w3.org/1999/xlink" x="0px" y="0px"
	 viewBox="0 0 64 64" style="enable-background:new 0 0 64 64;" xml:space="preserve">
<style type="text/css">
	.st0{fill:#2626DD;}
	.st1{fill:#2020D3;}
	.st2{fill:#7878F9;}
	.st3{fill:#4B4BF9;}
	.st4{fill:#2B26F9;}
	.st5{fill:#2525CE;}
	.st6{fill:#0404AF;}
	.st7{fill:#605706;}
	.st8{fill:#0606B5;}
	.st9{fill:#0000FF;}
	.st10{fill:#9E930A;}
	.st11{fill:#A39213;}
	.st12{fill:#EAD939;}
	.st13{fill:#B7AE08;}
	.st14{fill:#D1C20D;}
	.st15{fill:#89800B;}
	.st16{fill:#A0920B;}
	.st17{fill:#BCAA08;}
	.st18{fill:#F4E806;}
	.st19{fill:#E8DC43;}
	.st20{fill:#D6C30F;}
	.st21{fill:#B7A430;}
	.st22{opacity:0.28;fill:#FFFF00;enable-background:new    ;}
	.st23{fill:#847508;}
	.st24{fill:#7C762F;}
	.st25{fill:#605B2B;}
	.st26{fill:#756D0E;}
	.st27{fill:#CEBF0D;}
	.st28{fill:#96860C;}
	.st29{fill:#AA9B29;}
	.st30{fill:#565122;}
	.st31{fill:#AFA30B;}
	.st32{fill:#A39C17;}
	.st33{fill:#AF980E;}
	.st34{fill:#9B8710;}
	.st35{fill:#968011;}
	.st36{opacity:0.52;fill:#725F0D;enable-background:new    ;}
	.st37{opacity:0.54;fill:#ADA805;enable-background:new    ;}
	.st38{fill:#D6D6D6;}
	.st39{fill:url(#SVGID_1_);}
	.st40{fill:url(#SVGID_2_);}
</style>
<g id="FRONT_WHEEL">
	<polygon id="TREAD" class="st0" points="37.8,61 34.3,61.5 32,61.5 31.7,61.5 31.3,61.2 31.1,60.9 30.8,60.3 30.4,59.8 30.3,59.3 
		30,58.7 29.6,57.6 29.4,56.7 29.3,55.9 29,54.7 28.7,53.3 28.5,52.7 28.4,51.3 28.3,50.3 28.2,49.3 28.1,48.2 28.1,46.7 28,45.1 
		28,43.6 28.1,42.4 28.2,40.8 28.4,38.8 28.6,36 28.9,34 29.3,32.1 30,30.6 30.5,29.8 30.9,29.4 31.3,29.3 32,29.6 32.8,30.6 
		33.8,32.6 34.2,34.3 34.8,36.7 35.4,40.3 35.9,44.4 36.3,48.1 37,53.9 37.4,57.3 	"/>
	<path id="SIDEWALL" class="st1" d="M34.9,44.7c0.4,8.8-0.9,16.2-2.7,16.7c-1.5,0.4-2.9-3.8-3.6-9.9c-0.2-1.7-0.3-3.4-0.4-5.1
		c-0.4-8.8,0.9-16.2,2.7-16.7S34.5,35.9,34.9,44.7z"/>
	<ellipse id="lip" class="st2" cx="31.3" cy="44.4" rx="2.9" ry="13.7"/>
	<ellipse id="barrel" class="st3" cx="31.2" cy="44.1" rx="2.6" ry="12.4"/>
	<ellipse id="disc" class="st4" cx="32.5" cy="44.1" rx="1.2" ry="9.8"/>
	<ellipse id="CENTRE_CAP_REAR" class="st5" cx="32.8" cy="44.2" rx="0.8" ry="3"/>
	<ellipse id="CENTRE_CAPT" class="st6" cx="32.5" cy="44.2" rx="0.4" ry="1.7"/>
</g>
<g id="Diffuser">
	<polygon class="st7" points="5,48.8 2.1,47.7 2,38.9 5.1,39.2 	"/>
</g>
<g id="REAR_WHEEL">
	<path id="SIDEWALL-2" class="st8" d="M9.3,39c0,4.1,1.9,10.6,1.6,13.4c-0.1,1-2,0.9-2.5,0.9c-0.4,0-1.8-0.1-2.1-0.1
		c-1.7,0-3-6.3-3-14.1S4.5,25,6.2,25S9.3,31.3,9.3,39z"/>
	<ellipse id="OUTER_LIP" class="st2" cx="5.6" cy="38.4" rx="2.3" ry="11.7"/>
	<ellipse id="STEP_LIP" class="st3" cx="5.9" cy="38.5" rx="1.8" ry="10.7"/>
	<ellipse id="INNER_BARREL" class="st4" cx="6.3" cy="38.3" rx="1.2" ry="9.8"/>
	<path id="CENTRE_CAP" class="st9" d="M7.5,36.3c-0.3,1.6-0.3,0.9-0.4,2c-0.2,1.2,0.4,3.6,0.3,2.9"/>
</g>
<g id="Spoiler">
	<polygon id="right" class="st10" points="16.5,10 13.1,11.9 13.1,4.7 16.4,6.3 	"/>
	<polygon class="st11" points="1.6,8.3 14.5,7.8 14.5,8.8 1.6,9.3 	"/>
	<polygon class="st12" points="1.6,7.4 14.5,6.9 14.5,8 1.6,8.5 	"/>
	<polygon id="left" class="st13" points="4.2,11 0.7,12.9 0.7,5.7 4,7.3 	"/>
	<polygon id="left-2" class="st14" points="3.7,10.6 0.7,12.2 0.7,6.3 3.6,7.6 	"/>
	<polygon class="st15" points="7.3,13.3 6.7,14.2 5.6,9.1 6.2,9 	"/>
</g>
<g id="BODY">
	<polygon class="st16" points="40.9,56.7 37.4,56.3 37,52.4 36,45.8 35.4,40.9 35.1,38.7 34.7,37.1 34.5,36 34.3,35.2 34.2,34.6 
		34,34 33.8,33.5 33.6,33 33.4,32.3 33.1,31.8 32.8,31.3 32.5,30.8 32.3,30.6 32,30.3 31.6,30.2 31.2,30.2 30.8,30.5 30.4,30.9 
		29.9,32.1 29.3,33.6 28.8,36.4 28.5,38.8 28.4,41.3 28.2,43.9 28.2,47.4 28.4,49.7 28.5,51.1 28.6,52.8 28.8,54.7 10.1,49.7 
		9.2,41.4 8.1,32.5 7.7,30.5 7.5,29.6 7.4,29.2 7.2,28.5 7,27.9 6.7,27.3 6.5,26.9 6.3,26.6 6.2,26.3 5.9,26.1 5.8,26.1 5.6,26.1 
		5.4,26.1 5.3,26.3 5,26.6 4.8,26.9 4.7,27.2 4.6,27.4 4.4,27.9 4.3,28.5 4.1,29.3 3.9,30.6 3.8,31.1 3.5,33.4 3.3,37.5 3.2,37.9 
		0.7,14.7 39.4,26.3 	"/>
	<polygon class="st17" points="39.3,26.2 0.6,14.7 2.3,13.9 27.4,0.5 	"/>
	<polygon class="st18" points="56.2,18.1 35.5,18.1 27.4,0.5 40.7,0.5 	"/>
	<polygon class="st19" points="62.9,25.1 59.9,28.1 47.4,28.7 39.3,26.2 35.5,18.1 56.3,18.1 	"/>
	<polygon class="st20" points="61,44.2 40.3,46.7 39.6,29.8 44.8,30.7 59.7,30.7 62.7,28.7 	"/>
	<polygon class="st21" points="62.7,45.4 46.7,47.2 40.5,46.7 61,44.2 	"/>
	<path class="st22" d="M44.5,30.7"/>
	<polygon class="st20" points="61.9,56.6 47,58.7 40.8,56.6 40.3,46.7 47,47.2 62.7,45.4 	"/>
	<polygon class="st23" points="63.5,59.2 47.3,63.5 37.7,60.9 37.1,56 40.4,56 45.6,58.2 47.6,58.2 61.8,56 	"/>
	<polygon class="st24" points="56.1,18.1 35.8,18.1 30.1,5.7 45.1,5.7 	"/>
	<polygon class="st25" points="35,21.1 13,16 14.8,8 26.5,2.7 	"/>
	<polygon id="window" class="st26" points="35,21.2 15.8,16.6 16.6,10.9 26.9,3.8 	"/>
	<path class="st22" d="M45.6,53.8"/>
	<polygon class="st7" points="59.4,48.1 48.8,49.3 48,57.8 60.7,55.8 	"/>
	<polygon class="st27" points="59.8,49.7 48.5,51.4 48.7,49.3 59.5,47.5 	"/>
	<polygon class="st28" points="60.7,55.7 59,54 58.5,50 59.8,49.7 	"/>
	<polygon class="st29" points="59,54 48.1,56 48,57.7 60.7,55.7 	"/>
	<polygon class="st30" points="54.2,17.3 44.7,15 44.3,6 	"/>
</g>
<g id="FLARES_SKIRT">
	<polygon class="st31" points="13.6,44.9 15.3,49 9.8,48.2 9.7,47.2 9.6,46.7 9.6,46.2 9.4,45.4 9.1,42.5 8.7,39.3 8.5,37.6 
		8.2,35.9 8.1,34.4 7.8,33 7.7,31.7 7.5,30.8 7.3,30.1 7.1,29.4 7,29 6.9,28.7 6.8,28.3 6.6,27.7 6.4,27.3 6.2,27 6.1,26.7 
		5.9,26.5 5.7,26.4 5.6,26.4 5.5,26.4 5.4,26.4 5.3,26.4 5.1,26.5 4.9,26.7 4.7,27 4.6,27.4 4.4,27.8 4.2,28.7 4.2,28.7 4.1,29.1 
		4,29.6 3.9,30 3.8,31 3.7,31.6 3.6,32.1 3.6,32.9 3.5,33.7 3.5,34.6 3.4,35.3 3.4,36.5 3.3,37.8 3.2,38.2 1.3,17 11.9,19.8 	"/>
	<path class="st22" d="M8.8,39.7"/>
	<polygon class="st31" points="40.1,56 37.1,56 36.9,54 36.2,48.8 35.8,45.5 35.5,42.6 35,38.9 34.7,37.6 34.6,36.6 34.4,35.9 
		34.3,35.5 34.2,35 34,34.3 33.9,33.9 33.8,33.7 33.6,33.3 33.4,32.7 33.2,32.1 32.9,31.6 32.7,31.1 32.4,30.7 32.2,30.6 32,30.4 
		31.8,30.3 31.6,30.1 31.4,30.1 31.2,30.1 31,30.1 30.8,30.3 30.5,30.6 30.4,30.8 30.2,31.1 29.9,31.7 29.7,32.1 29.5,32.6 29.4,33 
		29.3,33.6 29.2,34.2 29,34.6 28.9,35.3 28.8,36.2 28.7,36.9 28.6,37.8 28.5,38.6 28.4,39.9 28.3,40.8 28.2,41.9 28.2,42.9 
		28.1,44.1 28.1,45.1 28.1,45.9 28.1,46.8 28.2,48 28.2,48.7 28.3,49.3 28.4,49.8 28.4,50.4 28.5,51 28.6,52.1 28.6,52.9 26.8,52.3 
		26.6,28 27.5,23.8 38.8,27 	"/>
	<polygon class="st7" points="29.4,57.7 9.9,52.7 9.8,48.2 10.8,48.7 19.6,50.9 28.7,53.3 29.5,57.1 	"/>
	<polygon class="st32" points="28.6,52.9 28.7,53.3 11.6,49 9.8,48.2 15.2,48.7 26.7,51.7 	"/>
	<path class="st22" d="M11.5,48.6"/>
	<path class="st22" d="M11.5,48.5"/>
	<path class="st22" d="M11.7,50"/>
	<polygon class="st33" points="40.1,56 37.4,55.9 36.3,46.8 36.2,45.8 36.1,44.8 35.9,43.4 35.8,42.5 35.7,41.2 35.6,40.3 35.4,39 
		35.2,37.8 35.1,37 34.9,36.2 34.8,35.5 34.5,34.5 34.4,33.8 34.2,33.3 34.1,32.9 34,32.4 33.8,32 33.7,31.7 33.5,31.3 33.4,31 
		33.3,30.7 33.2,30.4 33,30.1 32.8,29.7 32.5,29.3 32.3,29 32,28.7 31.7,28.5 31.3,28.4 30.9,28.4 30.5,28.5 30.1,29 29.7,29.7 
		29.7,28.8 29.7,24.5 38.8,27 	"/>
	<polyline class="st33" points="10.6,48.5 9.3,39.5 9.2,38.5 9,37.5 8.9,36.1 8.8,35.2 8.6,34 8.5,33.1 8.3,31.8 8.1,30.5 7.9,29.8 
		7.8,29 7.6,28.3 7.4,27.4 7.2,26.7 7,26.1 6.9,25.7 6.7,25.3 6.6,24.9 6.4,24.6 6.3,24.1 6.1,23.9 6,23.6 5.9,23.3 5.7,23 
		5.4,22.6 5.1,22.2 4.9,21.9 4.6,21.6 4.3,21.5 3.9,21.4 3.5,21.4 3.1,21.6 2.6,22 2.4,22.2 2,23.1 1.9,23.9 1.7,22.1 1.3,17 
		11.8,19.6 13.6,44.9 15.2,48.7 	"/>
	<polygon class="st34" points="38.2,28.3 37.6,29.8 36.3,32.9 36.1,33.6 35.9,34 35.7,35.2 35.6,35.7 35.5,37.9 35.4,39 35.3,38.3 
		35.1,37.5 35,36.5 34.9,35.9 34.8,35.5 34.6,34.9 34.6,34.6 34.3,33.7 34.3,33.4 34.1,32.9 34,32.7 33.9,32.1 33.8,31.9 33.6,31.6 
		33.6,31.4 33.4,30.8 33.2,30.6 33.2,30.4 33,30.1 33,30 32.8,29.7 32.7,29.6 32.7,29.6 32.6,29.4 32.4,29.3 32.3,29.1 32.2,29 
		32,28.8 31.9,28.7 31.3,28.4 38.8,27 	"/>
	<path class="st33" d="M12.4,46.4"/>
	<polygon class="st35" points="6.9,25.4 7.6,26.4 8.8,25 9.6,24.2 8.2,27.5 10.2,23.7 10.7,23.3 8.8,29.3 11.8,22.2 10.5,29.7 
		11.2,29.3 12,24.1 11.8,19.6 8.6,23.1 	"/>
	<polygon class="st36" points="15.2,48.7 11.2,48.2 12.7,47.8 12.6,44.1 13.6,44.9 	"/>
</g>
<g id="BUMPER_DETAILS">
	<polygon class="st37" points="45.6,55.2 41.5,53.1 41.5,49.8 45.5,49.8 	"/>
	<polygon class="st7" points="45.7,55 44.4,53.6 41.5,52.6 41.5,49.8 44.5,49.8 45.3,50 44.4,50.5 44.4,53.1 45.2,54.1 	"/>
</g>
<g id="LIGHTS">
	<polygon class="st38" points="62.7,28.7 59.7,30.7 44.9,30.7 39.6,29.8 39.3,26.2 48,28.5 60.2,27.7 62.9,25.1 	"/>
	
		<linearGradient id="SVGID_1_" gradientUnits="userSpaceOnUse" x1="51.2321" y1="39.8957" x2="51.2321" y2="35.3028" gradientTransform="matrix(1 0 0 -1 0 66)">
		<stop  offset="0.54" style="stop-color:#7878F9"/>
		<stop  offset="1" style="stop-color:#000000"/>
	</linearGradient>
	<polygon class="st39" points="62.6,28.3 59.8,30.1 44.9,30.1 39.9,29.4 39.8,27.1 48.1,29 60.1,28.5 62.7,26.1 	"/>
	<polygon class="st38" points="62.1,33.9 59.3,35.9 45,35.9 39.9,35 39.7,31.4 48,33.7 59.7,32.9 62.5,30.1 	"/>
	
		<linearGradient id="SVGID_2_" gradientUnits="userSpaceOnUse" x1="84.281" y1="32.7058" x2="84.3097" y2="32.7058" gradientTransform="matrix(1 0 0 -1 0 66)">
		<stop  offset="0.58" style="stop-color:#7878F9"/>
		<stop  offset="1" style="stop-color:#000000"/>
	</linearGradient>
	<polygon class="st40" points="62,33.4 59.3,35.3 44.4,35.3 40.1,34.4 40,32.1 47.6,34.2 59.6,33.7 62.2,31.3 	"/>
</g>
</svg>
