<?xml version="1.0" encoding="utf-8"?>
<!-- Generator: Adobe Illustrator 24.3.0, SVG Export Plug-In . SVG Version: 6.00 Build 0)  -->
<svg version="1.1" id="Layer_1" xmlns="http://www.w3.org/2000/svg" xmlns:xlink="http://www.w3.org/1999/xlink" x="0px" y="0px"
	 viewBox="0 0 64 64" style="enable-background:new 0 0 64 64;" xml:space="preserve">
<g>
	<g>
		<path d="M-0.1,36.9V26.5L8.8,2.7v13.8l-5.9,15v0.4l5.9,15v13.8L-0.1,36.9z"/>
		<path d="M26.3,1.3h3.5l-1.2,32c-0.1,4-0.4,11.1-0.6,15.9h0.1c0.4-5.2,0.9-11.1,1.4-15.9L31.2,17h2.2l0.1,16.3c0,3,0,10.5,0,15.9
			h0.1c0.3-4.9,0.6-10.8,0.9-16l1.9-31.9h3.5l-4.5,62h-4l0.1-18.4c0-4,0.1-8.5,0.1-12h-0.1c-0.3,3.7-0.6,8-0.9,12L29,63.3H25
			L26.3,1.3z"/>
		<path d="M54.3,46.9l5.9-15v-0.4l-5.9-15V2.7l8.9,23.8v10.5l-8.9,23.8V46.9z"/>
	</g>
</g>
</svg>
